REM DIRINDEX 1\2\3,1\2\4,1\2\5,1\2\6
REM DIRNAME folder01,folder02,folder03,folder04,folder05,folder06
TITLE ""
FILE "081 081.mp3" MP3
  TRACK 01 AUDIO
    TITLE "0:"
    INDEX 01 00:00:00
  TRACK 02 AUDIO
    TITLE "3:cjc157_3050"
    INDEX 01 00:00:05
  TRACK 03 AUDIO
    TITLE "0:"
    INDEX 01 00:01:03
  TRACK 04 AUDIO
    TITLE "4:cjc157_3051"
    INDEX 01 00:01:48
  TRACK 05 AUDIO
    TITLE "0:"
    INDEX 01 00:02:67
  TRACK 06 AUDIO
    TITLE "5:cjc157_3052"
    INDEX 01 00:03:37
  TRACK 07 AUDIO
    TITLE "0:"
    INDEX 01 00:05:05
  TRACK 08 AUDIO
    TITLE "5:cjc157_3053"
    INDEX 01 00:05:54
  TRACK 09 AUDIO
    TITLE "0:"
    INDEX 01 00:07:47
  TRACK 10 AUDIO
    TITLE "3:cjc157_3054"
    INDEX 01 00:08:19
  TRACK 11 AUDIO
    TITLE "0:"
    INDEX 01 00:09:55
  TRACK 12 AUDIO
    TITLE "4:cjc157_3055"
    INDEX 01 00:10:25
  TRACK 13 AUDIO
    TITLE "0:"
    INDEX 01 00:11:25
  TRACK 14 AUDIO
    TITLE "5:cjc157_3056"
    INDEX 01 00:11:70
  TRACK 15 AUDIO
    TITLE "0:"
    INDEX 01 00:13:33
  TRACK 16 AUDIO
    TITLE "5:cjc157_3057"
    INDEX 01 00:14:06
  TRACK 17 AUDIO
    TITLE "0:"
    INDEX 01 00:15:70
  TRACK 18 AUDIO
    TITLE "5:cjc157_3058"
    INDEX 01 00:16:40
  TRACK 19 AUDIO
    TITLE "0:"
    INDEX 01 00:17:70
  TRACK 20 AUDIO
    TITLE "3:cjc157_3059"
    INDEX 01 00:18:42
  TRACK 21 AUDIO
    TITLE "0:"
    INDEX 01 00:19:56
  TRACK 22 AUDIO
    TITLE "4:cjc157_3060"
    INDEX 01 00:20:28
  TRACK 23 AUDIO
    TITLE "0:"
    INDEX 01 00:21:29
  TRACK 24 AUDIO
    TITLE "5:cjc157_3061"
    INDEX 01 00:22:01
  TRACK 25 AUDIO
    TITLE "0:"
    INDEX 01 00:26:20
  TRACK 26 AUDIO
    TITLE "3:cjc157_3062"
    INDEX 01 00:26:67
  TRACK 27 AUDIO
    TITLE "0:"
    INDEX 01 00:28:12
  TRACK 28 AUDIO
    TITLE "4:cjc157_3063"
    INDEX 01 00:28:57
  TRACK 29 AUDIO
    TITLE "0:"
    INDEX 01 00:29:70
  TRACK 30 AUDIO
    TITLE "5:cjc157_3064"
    INDEX 01 00:30:40
  TRACK 31 AUDIO
    TITLE "0:"
    INDEX 01 00:33:24
  TRACK 32 AUDIO
    TITLE "5:cjc157_3065"
    INDEX 01 00:33:71
  TRACK 33 AUDIO
    TITLE "0:"
    INDEX 01 00:36:54
  TRACK 34 AUDIO
    TITLE "5:cjc157_3066"
    INDEX 01 00:37:28
  TRACK 35 AUDIO
    TITLE "0:"
    INDEX 01 00:38:31
  TRACK 36 AUDIO
    TITLE "3:cjc157_3067"
    INDEX 01 00:39:00
  TRACK 37 AUDIO
    TITLE "0:"
    INDEX 01 00:40:19
  TRACK 38 AUDIO
    TITLE "4:cjc157_3068"
    INDEX 01 00:40:66
  TRACK 39 AUDIO
    TITLE "0:"
    INDEX 01 00:41:63
  TRACK 40 AUDIO
    TITLE "5:cjc157_3069"
    INDEX 01 00:42:37
  TRACK 41 AUDIO
    TITLE "0:"
    INDEX 01 00:44:61
  TRACK 42 AUDIO
    TITLE "3:cjc157_3070"
    INDEX 01 00:45:30
  TRACK 43 AUDIO
    TITLE "0:"
    INDEX 01 00:46:37
  TRACK 44 AUDIO
    TITLE "4:cjc157_3071"
    INDEX 01 00:47:05
  TRACK 45 AUDIO
    TITLE "0:"
    INDEX 01 00:48:08
  TRACK 46 AUDIO
    TITLE "5:cjc157_3072"
    INDEX 01 00:48:57
  TRACK 47 AUDIO
    TITLE "0:"
    INDEX 01 00:50:44
  TRACK 48 AUDIO
    TITLE "5:cjc157_3073"
    INDEX 01 00:51:16
  TRACK 49 AUDIO
    TITLE "0:"
    INDEX 01 00:53:27
  TRACK 50 AUDIO
    TITLE "3:cjc157_3074"
    INDEX 01 00:53:72
  TRACK 51 AUDIO
    TITLE "0:"
    INDEX 01 00:55:16
  TRACK 52 AUDIO
    TITLE "4:cjc157_3075"
    INDEX 01 00:55:63
  TRACK 53 AUDIO
    TITLE "0:"
    INDEX 01 00:57:01
  TRACK 54 AUDIO
    TITLE "5:cjc157_3076"
    INDEX 01 00:57:45
  TRACK 55 AUDIO
    TITLE "0:"
    INDEX 01 01:00:15
  TRACK 56 AUDIO
    TITLE "3:cjc157_3077"
    INDEX 01 01:00:59
  TRACK 57 AUDIO
    TITLE "0:"
    INDEX 01 01:01:52
  TRACK 58 AUDIO
    TITLE "4:cjc157_3078"
    INDEX 01 01:02:24
  TRACK 59 AUDIO
    TITLE "0:"
    INDEX 01 01:03:31
  TRACK 60 AUDIO
    TITLE "5:cjc157_3079"
    INDEX 01 01:04:05
  TRACK 61 AUDIO
    TITLE "0:"
    INDEX 01 01:05:66
  TRACK 62 AUDIO
    TITLE "5:cjc157_3080"
    INDEX 01 01:06:42
  TRACK 63 AUDIO
    TITLE "0:"
    INDEX 01 01:08:05
  TRACK 64 AUDIO
    TITLE "3:cjc157_3081"
    INDEX 01 01:08:50
  TRACK 65 AUDIO
    TITLE "0:"
    INDEX 01 01:09:63
  TRACK 66 AUDIO
    TITLE "4:cjc157_3082"
    INDEX 01 01:10:35
  TRACK 67 AUDIO
    TITLE "0:"
    INDEX 01 01:11:33
  TRACK 68 AUDIO
    TITLE "5:cjc157_3083"
    INDEX 01 01:12:09
  TRACK 69 AUDIO
    TITLE "0:"
    INDEX 01 01:13:65
  TRACK 70 AUDIO
    TITLE "5:cjc157_3084"
    INDEX 01 01:14:39
  TRACK 71 AUDIO
    TITLE "0:"
    INDEX 01 01:16:16
  TRACK 72 AUDIO
    TITLE "3:cjc157_3085"
    INDEX 01 01:16:61
  TRACK 73 AUDIO
    TITLE "0:"
    INDEX 01 01:17:49
  TRACK 74 AUDIO
    TITLE "4:cjc157_3086"
    INDEX 01 01:18:21
  TRACK 75 AUDIO
    TITLE "0:"
    INDEX 01 01:19:28
  TRACK 76 AUDIO
    TITLE "5:cjc157_3087"
    INDEX 01 01:19:74
  TRACK 77 AUDIO
    TITLE "0:"
    INDEX 01 01:22:41
  TRACK 78 AUDIO
    TITLE "5:cjc157_3088"
    INDEX 01 01:23:11
  TRACK 79 AUDIO
    TITLE "0:"
    INDEX 01 01:25:27
